<?xml version="1.0" encoding="utf-8"?>
<!-- Generator: Adobe Illustrator 18.1.0, SVG Export Plug-In . SVG Version: 6.00 Build 0)  -->
<svg version="1.1" id="Logo_1_" xmlns="http://www.w3.org/2000/svg" xmlns:xlink="http://www.w3.org/1999/xlink" x="0px" y="0px"
	 viewBox="0 0 202 202" enable-background="new 0 0 202 202" xml:space="preserve">
<g id="Layer_3">
	<path fill="#F7544F" d="M189.5,200.7H12.5c-6.6,0-12-5.4-12-12V11.8c0-6.6,5.4-12,12-12h176.9c6.6,0,12,5.4,12,12v176.9
		C201.5,195.3,196.1,200.7,189.5,200.7z"/>
</g>
<g id="Rounded_Rectangle_3">
	<g>
		<path fill-rule="evenodd" clip-rule="evenodd" fill="#FFFFFF" d="M159.2,45.8h-113c-3,0-5.4,2.4-5.4,5.4v13.5c0,3,2.4,5.4,5.4,5.4
			h113c3,0,5.4-2.4,5.4-5.4V51.2C164.5,48.2,162.1,45.8,159.2,45.8z"/>
	</g>
</g>
<g id="Rounded_Rectangle_3_copy">
	<g>
		<path fill-rule="evenodd" clip-rule="evenodd" fill="#FFFFFF" d="M159.2,88.2h-113c-3,0-5.4,2.4-5.4,5.4v13.4c0,3,2.4,5.4,5.4,5.4
			h113c3,0,5.4-2.4,5.4-5.4V93.6C164.5,90.6,162.1,88.2,159.2,88.2z"/>
	</g>
</g>
<g id="Rounded_Rectangle_3_copy_2">
	<g>
		<path fill-rule="evenodd" clip-rule="evenodd" fill="#FFFFFF" d="M159.2,130.4h-113c-3,0-5.4,2.4-5.4,5.4v13.5
			c0,3,2.4,5.4,5.4,5.4h113c3,0,5.4-2.4,5.4-5.4v-13.5C164.5,132.8,162.1,130.4,159.2,130.4z"/>
	</g>
</g>
</svg>
